<svg width="51" height="34" viewBox="0 0 51 34" fill="none" xmlns="http://www.w3.org/2000/svg">
<path d="M50.6035 27.7905C50.6033 32.3987 45.3842 35.0683 41.6475 32.3716L26.3154 21.3071C25.9296 21.0287 25.5923 20.7131 25.3018 20.3706C25.0113 20.7129 24.6737 21.0279 24.2881 21.3062L8.95605 32.3716C5.21923 35.0682 0 32.3978 0 27.7896V5.65967C0.000183105 1.05149 5.2193 -1.61814 8.95605 1.07861L24.2881 12.1431C24.6738 12.4215 25.0122 12.7362 25.3027 13.0786C25.593 12.7368 25.9303 12.422 26.3154 12.144L41.6475 1.07861C45.3843 -1.61799 50.6035 1.05241 50.6035 5.66064V27.7905ZM21.9473 18.063C22.8599 17.4043 22.8599 16.0459 21.9473 15.3872L6.61523 4.32178C5.52394 3.53443 4.00018 4.314 4 5.65967V27.7896C4 29.0932 5.43013 29.8664 6.51172 29.1978L6.61523 29.1284L21.9473 18.063ZM46.6035 5.66064C46.6035 4.35697 45.1734 3.58381 44.0918 4.25244L43.9883 4.32178L28.6562 15.3872C27.7436 16.0459 27.7436 17.4043 28.6562 18.063L43.9883 29.1284C45.0796 29.9158 46.6033 29.1362 46.6035 27.7905V5.66064Z" fill="#C4B5FD"/>
</svg>
