<svg width="41" height="41" viewBox="0 0 41 41" fill="none" xmlns="http://www.w3.org/2000/svg">
<path d="M28.3379 12.293H13.3379C12.9237 12.293 12.5879 12.6288 12.5879 13.043V28.043C12.5879 28.4572 12.9237 28.793 13.3379 28.793H28.3379C28.7521 28.793 29.0879 28.4572 29.0879 28.043V13.043C29.0879 12.6288 28.7521 12.293 28.3379 12.293Z" stroke="#026535" stroke-width="2" stroke-linecap="round" stroke-linejoin="round"/>
<path d="M18.1855 19.3906L20.8387 22.0438L23.4918 19.3906" stroke="#026535" stroke-width="2" stroke-linecap="round" stroke-linejoin="round"/>
<path d="M20.8379 15.668V22.043" stroke="#026535" stroke-width="2" stroke-linecap="round" stroke-linejoin="round"/>
<path d="M12.5879 23.168H16.0285C16.1259 23.1676 16.2224 23.1865 16.3125 23.2235C16.4026 23.2605 16.4845 23.3149 16.5535 23.3836L18.3723 25.2023C18.4413 25.271 18.5232 25.3254 18.6133 25.3624C18.7034 25.3994 18.7999 25.4183 18.8973 25.418H22.7785C22.8759 25.4183 22.9724 25.3994 23.0625 25.3624C23.1526 25.3254 23.2345 25.271 23.3035 25.2023L25.1223 23.3836C25.1913 23.3149 25.2732 23.2605 25.3633 23.2235C25.4534 23.1865 25.5499 23.1676 25.6473 23.168H29.0879" stroke="#026535" stroke-width="2" stroke-linecap="round" stroke-linejoin="round"/>
</svg>
