<svg width="41" height="41" viewBox="0 0 41 41" fill="none" xmlns="http://www.w3.org/2000/svg">
<path d="M11.0791 23.918L14.8291 29.168" stroke="#026535" stroke-width="2" stroke-linecap="round" stroke-linejoin="round"/>
<path d="M26.8467 23.918L30.5967 29.168" stroke="#026535" stroke-width="2" stroke-linecap="round" stroke-linejoin="round"/>
<path d="M14.8291 23.918L11.0791 29.168" stroke="#026535" stroke-width="2" stroke-linecap="round" stroke-linejoin="round"/>
<path d="M30.5967 23.918L26.8467 29.168" stroke="#026535" stroke-width="2" stroke-linecap="round" stroke-linejoin="round"/>
<path d="M16.96 23.918V29.168H19.585" stroke="#026535" stroke-width="2" stroke-linecap="round" stroke-linejoin="round"/>
<path d="M22.7129 11.918V17.918H28.7129" stroke="#026535" stroke-width="2" stroke-linecap="round" stroke-linejoin="round"/>
<path d="M12.9629 20.168V12.668C12.9629 12.4691 13.0419 12.2783 13.1826 12.1376C13.3232 11.997 13.514 11.918 13.7129 11.918H23.4629L28.7129 17.168V20.168" stroke="#026535" stroke-width="2" stroke-linecap="round" stroke-linejoin="round"/>
<path d="M21.7158 28.643C22.1095 28.9758 22.6066 29.1614 23.1221 29.168C23.9658 29.168 24.7158 28.8492 24.7158 27.7992C24.7158 26.1211 21.7158 26.8617 21.7158 25.2867C21.7158 24.443 22.2783 23.918 23.1221 23.918C23.6375 23.9245 24.1347 24.1101 24.5283 24.443" stroke="#026535" stroke-width="2" stroke-linecap="round" stroke-linejoin="round"/>
</svg>
