<svg width="41" height="41" viewBox="0 0 41 41" fill="none" xmlns="http://www.w3.org/2000/svg">
<path d="M11.8379 28.043V14.543C11.8379 14.3441 11.9169 14.1533 12.0576 14.0126C12.1982 13.872 12.389 13.793 12.5879 13.793H17.5848C17.7469 13.7936 17.9046 13.8462 18.0348 13.943L20.641 15.893C20.7712 15.9897 20.9288 16.0423 21.091 16.043H27.5879C27.7868 16.043 27.9776 16.122 28.1182 16.2626C28.2589 16.4033 28.3379 16.5941 28.3379 16.793V19.043" stroke="#026535" stroke-width="2" stroke-linecap="round" stroke-linejoin="round"/>
<path d="M11.8379 28.043L14.641 21.3773C14.6994 21.2416 14.7961 21.1258 14.9194 21.0442C15.0426 20.9626 15.187 20.9187 15.3348 20.918H19.8629C20.009 20.9164 20.1519 20.8742 20.2754 20.7961L22.1504 19.5399C22.2739 19.4617 22.4167 19.4195 22.5629 19.418H30.2785C30.3982 19.4175 30.5163 19.4456 30.6229 19.5001C30.7295 19.5545 30.8215 19.6337 30.8913 19.731C30.961 19.8282 31.0065 19.9408 31.0238 20.0592C31.0412 20.1777 31.0299 20.2985 30.991 20.4117L28.3379 28.043H11.8379Z" stroke="#026535" stroke-width="2" stroke-linecap="round" stroke-linejoin="round"/>
</svg>
