<svg width="40" height="41" viewBox="0 0 40 41" fill="none" xmlns="http://www.w3.org/2000/svg">
<path d="M29.375 23.918H26.375V29.168" stroke="#026535" stroke-width="2" stroke-linecap="round" stroke-linejoin="round"/>
<path d="M29 26.918H26.375" stroke="#026535" stroke-width="2" stroke-linecap="round" stroke-linejoin="round"/>
<path d="M21.875 11.918V17.918H27.875" stroke="#026535" stroke-width="2" stroke-linecap="round" stroke-linejoin="round"/>
<path d="M12.125 20.168V12.668C12.125 12.4691 12.204 12.2783 12.3447 12.1376C12.4853 11.997 12.6761 11.918 12.875 11.918H22.625L27.875 17.168V20.168" stroke="#026535" stroke-width="2" stroke-linecap="round" stroke-linejoin="round"/>
<path d="M18.5 29.168V23.918H20C20.6962 23.918 21.3639 24.1945 21.8562 24.6868C22.3484 25.1791 22.625 25.8468 22.625 26.543C22.625 27.2392 22.3484 27.9068 21.8562 28.3991C21.3639 28.8914 20.6962 29.168 20 29.168H18.5Z" stroke="#026535" stroke-width="2" stroke-linecap="round" stroke-linejoin="round"/>
<path d="M11.375 27.668H12.875C13.3723 27.668 13.8492 27.4704 14.2008 27.1188C14.5525 26.7672 14.75 26.2902 14.75 25.793C14.75 25.2957 14.5525 24.8188 14.2008 24.4671C13.8492 24.1155 13.3723 23.918 12.875 23.918H11.375V29.168" stroke="#026535" stroke-width="2" stroke-linecap="round" stroke-linejoin="round"/>
</svg>
