<svg width="41" height="41" viewBox="0 0 41 41" fill="none" xmlns="http://www.w3.org/2000/svg">
<rect x="0.837891" y="0.542969" width="40" height="40" rx="16" fill="#026535"/>
<path d="M29.4629 24.9775V16.1087C29.4622 15.9752 29.4263 15.8442 29.3588 15.729C29.2913 15.6138 29.1946 15.5184 29.0785 15.4525L21.2035 10.9993C21.0924 10.9352 20.9663 10.9014 20.8379 10.9014C20.7095 10.9014 20.5834 10.9352 20.4723 10.9993L12.5973 15.4525C12.4812 15.5184 12.3845 15.6138 12.317 15.729C12.2495 15.8442 12.2136 15.9752 12.2129 16.1087V24.9775C12.2136 25.111 12.2495 25.242 12.317 25.3572C12.3845 25.4724 12.4812 25.5678 12.5973 25.6337L20.4723 30.0868C20.5834 30.151 20.7095 30.1848 20.8379 30.1848C20.9663 30.1848 21.0924 30.151 21.2035 30.0868L29.0785 25.6337C29.1946 25.5678 29.2913 25.4724 29.3588 25.3572C29.4263 25.242 29.4622 25.111 29.4629 24.9775V24.9775Z" stroke="#E4FBF0" stroke-width="2" stroke-linecap="round" stroke-linejoin="round"/>
<path d="M20.8379 23.918C22.7019 23.918 24.2129 22.4069 24.2129 20.543C24.2129 18.679 22.7019 17.168 20.8379 17.168C18.9739 17.168 17.4629 18.679 17.4629 20.543C17.4629 22.4069 18.9739 23.918 20.8379 23.918Z" stroke="#E4FBF0" stroke-width="2" stroke-linecap="round" stroke-linejoin="round"/>
</svg>
