<svg width="40" height="41" viewBox="0 0 40 41" fill="none" xmlns="http://www.w3.org/2000/svg">
<rect y="0.542969" width="40" height="40" rx="16" fill="#E4FBF0"/>
<path d="M28.625 24.9775V16.1087C28.6243 15.9752 28.5884 15.8442 28.5209 15.729C28.4534 15.6138 28.3567 15.5184 28.2406 15.4525L20.3656 10.9993C20.2545 10.9352 20.1284 10.9014 20 10.9014C19.8716 10.9014 19.7455 10.9352 19.6344 10.9993L11.7594 15.4525C11.6433 15.5184 11.5466 15.6138 11.4791 15.729C11.4116 15.8442 11.3757 15.9752 11.375 16.1087V24.9775C11.3757 25.111 11.4116 25.242 11.4791 25.3572C11.5466 25.4724 11.6433 25.5678 11.7594 25.6337L19.6344 30.0868C19.7455 30.151 19.8716 30.1848 20 30.1848C20.1284 30.1848 20.2545 30.151 20.3656 30.0868L28.2406 25.6337C28.3567 25.5678 28.4534 25.4724 28.5209 25.3572C28.5884 25.242 28.6243 25.111 28.625 24.9775V24.9775Z" stroke="#147C4A" stroke-width="2" stroke-linecap="round" stroke-linejoin="round"/>
<path d="M20 23.918C21.864 23.918 23.375 22.4069 23.375 20.543C23.375 18.679 21.864 17.168 20 17.168C18.136 17.168 16.625 18.679 16.625 20.543C16.625 22.4069 18.136 23.918 20 23.918Z" stroke="#147C4A" stroke-width="2" stroke-linecap="round" stroke-linejoin="round"/>
</svg>
