<svg width="25" height="24" viewBox="0 0 25 24" fill="none" xmlns="http://www.w3.org/2000/svg">
<rect x="0.333008" width="24" height="24" rx="6" fill="#FB923C"/>
<path d="M18.1022 17.7675C19.3104 16.5593 17.7077 12.9977 14.5224 9.81253C11.3372 6.62731 7.77568 5.02461 6.56749 6.2328C5.35931 7.44098 6.96201 11.0025 10.1472 14.1877C13.3324 17.373 16.894 18.9757 18.1022 17.7675Z" stroke="#FAFAFA" stroke-width="1.6875" stroke-linecap="round" stroke-linejoin="round"/>
<path d="M14.5224 14.1875C17.7077 11.0023 19.3104 7.44071 18.1022 6.23252C16.894 5.02434 13.3324 6.62704 10.1472 9.81225C6.96201 12.9975 5.35931 16.559 6.56749 17.7672C7.77568 18.9754 11.3372 17.3727 14.5224 14.1875Z" stroke="#FAFAFA" stroke-width="1.6875" stroke-linecap="round" stroke-linejoin="round"/>
<path d="M12.333 13.125C12.9543 13.125 13.458 12.6213 13.458 12C13.458 11.3787 12.9543 10.875 12.333 10.875C11.7117 10.875 11.208 11.3787 11.208 12C11.208 12.6213 11.7117 13.125 12.333 13.125Z" fill="#FAFAFA"/>
</svg>
