<svg width="24" height="24" viewBox="0 0 24 24" fill="none" xmlns="http://www.w3.org/2000/svg">
<rect width="24" height="24" rx="6" fill="#F472B6"/>
<path d="M17.7692 17.7675C18.9774 16.5593 17.3747 12.9977 14.1894 9.81253C11.0042 6.62731 7.44267 5.02461 6.23449 6.2328C5.0263 7.44098 6.629 11.0025 9.81421 14.1877C12.9994 17.373 16.561 18.9757 17.7692 17.7675Z" stroke="#FAFAFA" stroke-width="1.6875" stroke-linecap="round" stroke-linejoin="round"/>
<path d="M14.1894 14.1875C17.3747 11.0023 18.9774 7.44071 17.7692 6.23252C16.561 5.02434 12.9994 6.62704 9.81421 9.81225C6.629 12.9975 5.0263 16.559 6.23449 17.7672C7.44267 18.9754 11.0042 17.3727 14.1894 14.1875Z" stroke="#FAFAFA" stroke-width="1.6875" stroke-linecap="round" stroke-linejoin="round"/>
<path d="M12 13.125C12.6213 13.125 13.125 12.6213 13.125 12C13.125 11.3787 12.6213 10.875 12 10.875C11.3787 10.875 10.875 11.3787 10.875 12C10.875 12.6213 11.3787 13.125 12 13.125Z" fill="#FAFAFA"/>
</svg>
