<svg width="25" height="24" viewBox="0 0 25 24" fill="none" xmlns="http://www.w3.org/2000/svg">
<rect x="0.325195" width="24" height="24" rx="6" fill="#FACC15"/>
<path d="M18.0944 17.767C19.3025 16.5588 17.6998 12.9973 14.5146 9.81204C11.3294 6.62682 7.76787 5.02413 6.55968 6.23231C5.3515 7.44049 6.9542 11.002 10.1394 14.1873C13.3246 17.3725 16.8862 18.9752 18.0944 17.767Z" stroke="#FAFAFA" stroke-width="1.6875" stroke-linecap="round" stroke-linejoin="round"/>
<path d="M14.5146 14.188C17.6998 11.0027 19.3025 7.4412 18.0944 6.23301C16.8862 5.02483 13.3246 6.62752 10.1394 9.81274C6.9542 12.998 5.3515 16.5595 6.55968 17.7677C7.76787 18.9759 11.3294 17.3732 14.5146 14.188Z" stroke="#FAFAFA" stroke-width="1.6875" stroke-linecap="round" stroke-linejoin="round"/>
<path d="M12.3252 13.125C12.9465 13.125 13.4502 12.6213 13.4502 12C13.4502 11.3787 12.9465 10.875 12.3252 10.875C11.7039 10.875 11.2002 11.3787 11.2002 12C11.2002 12.6213 11.7039 13.125 12.3252 13.125Z" fill="#FAFAFA"/>
</svg>
