<svg width="25" height="24" viewBox="0 0 25 24" fill="none" xmlns="http://www.w3.org/2000/svg">
<rect x="0.325195" width="24" height="24" rx="6" fill="#CA8A04"/>
<path d="M18.0944 17.7675C19.3025 16.5593 17.6998 12.9977 14.5146 9.81253C11.3294 6.62731 7.76787 5.02461 6.55968 6.2328C5.3515 7.44098 6.9542 11.0025 10.1394 14.1877C13.3246 17.373 16.8862 18.9757 18.0944 17.7675Z" stroke="#FAFAFA" stroke-width="1.6875" stroke-linecap="round" stroke-linejoin="round"/>
<path d="M14.5146 14.1875C17.6998 11.0023 19.3025 7.44071 18.0944 6.23252C16.8862 5.02434 13.3246 6.62704 10.1394 9.81225C6.9542 12.9975 5.3515 16.559 6.55968 17.7672C7.76787 18.9754 11.3294 17.3727 14.5146 14.1875Z" stroke="#FAFAFA" stroke-width="1.6875" stroke-linecap="round" stroke-linejoin="round"/>
<path d="M12.3252 13.125C12.9465 13.125 13.4502 12.6213 13.4502 12C13.4502 11.3787 12.9465 10.875 12.3252 10.875C11.7039 10.875 11.2002 11.3787 11.2002 12C11.2002 12.6213 11.7039 13.125 12.3252 13.125Z" fill="#FAFAFA"/>
</svg>
